<svg xmlns="http://www.w3.org/2000/svg" width="400" height="260" viewBox="0 0 400 260">
<defs>
  <linearGradient id="bg" x1="0" y1="0" x2="1" y2="1">
    <stop offset="0%" stop-color="#0f172a"/>
    <stop offset="100%" stop-color="#1e293b"/>
  </linearGradient>
</defs>
<rect width="400" height="260" fill="url(#bg)"/>
<circle cx="200" cy="130" r="130" fill="#6fa8ff" opacity="0.05"/>
<line x1="30" y1="100" x2="370" y2="100" stroke="white" stroke-opacity="0.05"/><line x1="30" y1="150" x2="370" y2="150" stroke="white" stroke-opacity="0.05"/><line x1="30" y1="200" x2="370" y2="200" stroke="white" stroke-opacity="0.05"/><rect x="40" y="170" width="24" rx="6" height="30" fill="#6fa8ff" opacity="0.58"/><rect x="80" y="150" width="24" rx="6" height="50" fill="#6fa8ff" opacity="0.70"/><rect x="120" y="120" width="24" rx="6" height="80" fill="#6fa8ff" opacity="0.88"/><rect x="160" y="140" width="24" rx="6" height="60" fill="#6fa8ff" opacity="0.76"/><rect x="200" y="110" width="24" rx="6" height="90" fill="#6fa8ff" opacity="0.94"/><rect x="240" y="130" width="24" rx="6" height="70" fill="#6fa8ff" opacity="0.82"/><rect x="280" y="105" width="24" rx="6" height="95" fill="#6fa8ff" opacity="0.97"/><rect x="320" y="125" width="24" rx="6" height="75" fill="#6fa8ff" opacity="0.85"/><polyline points="52,170 92,135 132,100 172,120 212,85 252,95 292,60 332,75" fill="none" stroke="#6fa8ff" stroke-width="2.5" stroke-opacity="0.9"/><circle cx="332" cy="60" r="5" fill="#6fa8ff"/><circle cx="212" cy="85" r="4" fill="#6fa8ff" opacity="0.7"/>
<rect x="16" y="224" width="184" height="22" rx="11" fill="white" fill-opacity="0.08"/>
<text x="26" y="239" font-family="system-ui,sans-serif" font-size="11" font-weight="600" fill="white" fill-opacity="0.55">Pattern Intelligence</text>
</svg>