<svg xmlns="http://www.w3.org/2000/svg" width="400" height="260" viewBox="0 0 400 260">
<defs>
  <linearGradient id="bg" x1="0" y1="0" x2="1" y2="1">
    <stop offset="0%" stop-color="#0f0a1e"/>
    <stop offset="100%" stop-color="#1a0f2e"/>
  </linearGradient>
</defs>
<rect width="400" height="260" fill="url(#bg)"/>
<circle cx="200" cy="130" r="130" fill="#a855f7" opacity="0.05"/>
<rect x="20" y="122" width="6" rx="3" height="16" fill="#a855f7" opacity="0.40"/><rect x="29" y="86.84009356696689" width="6" rx="3" height="86.31981286606621" fill="#a855f7" opacity="0.58"/><rect x="38" y="68.95956559206421" width="6" rx="3" height="122.08086881587158" fill="#a855f7" opacity="0.74"/><rect x="47" y="74.0339395554652" width="6" rx="3" height="111.9321208890696" fill="#a855f7" opacity="0.87"/><rect x="56" y="93.08006696071111" width="6" rx="3" height="73.83986607857778" fill="#a855f7" opacity="0.96"/><rect x="65" y="110.06635586860016" width="6" rx="3" height="39.86728826279969" fill="#a855f7" opacity="1.00"/><rect x="74" y="114.30058496685365" width="6" rx="3" height="31.39883006629269" fill="#a855f7" opacity="0.98"/><rect x="83" y="108.18012648165507" width="6" rx="3" height="43.639747036689855" fill="#a855f7" opacity="0.92"/><rect x="92" y="104.49326914087438" width="6" rx="3" height="51.01346171825125" fill="#a855f7" opacity="0.81"/><rect x="101" y="115.45357246066695" width="6" rx="3" height="29.092855078666112" fill="#a855f7" opacity="0.66"/><rect x="110" y="102.03086231872678" width="6" rx="3" height="55.938275362546435" fill="#a855f7" opacity="0.48"/><rect x="119" y="72.49751970003632" width="6" rx="3" height="115.00496059992736" fill="#a855f7" opacity="0.49"/><rect x="128" y="57.63000989490409" width="6" rx="3" height="144.73998021019182" fill="#a855f7" opacity="0.67"/><rect x="137" y="67.61222417321807" width="6" rx="3" height="124.77555165356385" fill="#a855f7" opacity="0.81"/><rect x="146" y="97.58991066563559" width="6" rx="3" height="64.82017866872883" fill="#a855f7" opacity="0.92"/><rect x="155" y="113.08200926416652" width="6" rx="3" height="33.83598147166698" fill="#a855f7" opacity="0.99"/><rect x="164" y="93.19658739224832" width="6" rx="3" height="73.60682521550336" fill="#a855f7" opacity="1.00"/><rect x="173" y="92.31695162619033" width="6" rx="3" height="75.36609674761932" fill="#a855f7" opacity="0.96"/><rect x="182" y="102.06383510599552" width="6" rx="3" height="55.872329788008955" fill="#a855f7" opacity="0.86"/><rect x="191" y="107.88483824578162" width="6" rx="3" height="44.23032350843675" fill="#a855f7" opacity="0.73"/><rect x="200" y="101.20035130435663" width="6" rx="3" height="57.59929739128674" fill="#a855f7" opacity="0.57"/><rect x="209" y="86.55547648129841" width="6" rx="3" height="86.88904703740317" fill="#a855f7" opacity="0.41"/><rect x="218" y="78.2614688466519" width="6" rx="3" height="103.47706230669621" fill="#a855f7" opacity="0.59"/><rect x="227" y="89.05558532343724" width="6" rx="3" height="81.8888293531255" fill="#a855f7" opacity="0.75"/><rect x="236" y="119.44180895754576" width="6" rx="3" height="21.116382084908494" fill="#a855f7" opacity="0.88"/><rect x="245" y="88.05979275291247" width="6" rx="3" height="83.88041449417506" fill="#a855f7" opacity="0.96"/><rect x="254" y="64.21405228355762" width="6" rx="3" height="131.57189543288476" fill="#a855f7" opacity="1.00"/><rect x="263" y="64.268086170393" width="6" rx="3" height="131.463827659214" fill="#a855f7" opacity="0.98"/><rect x="272" y="84.51309264708419" width="6" rx="3" height="90.9738147058316" fill="#a855f7" opacity="0.91"/><rect x="281" y="109.67018121970374" width="6" rx="3" height="40.659637560592536" fill="#a855f7" opacity="0.80"/><rect x="290" y="119.55351850990482" width="6" rx="3" height="20.89296298019036" fill="#a855f7" opacity="0.65"/><rect x="299" y="119.48285151086692" width="6" rx="3" height="21.03429697826615" fill="#a855f7" opacity="0.47"/><rect x="308" y="118.7156604785472" width="6" rx="3" height="22.56867904290559" fill="#a855f7" opacity="0.50"/><rect x="317" y="120.9457635069256" width="6" rx="3" height="18.108472986148797" fill="#a855f7" opacity="0.67"/><rect x="326" y="105.84254660152996" width="6" rx="3" height="48.31490679694008" fill="#a855f7" opacity="0.82"/><rect x="335" y="80.2763443799115" width="6" rx="3" height="99.44731124017697" fill="#a855f7" opacity="0.93"/><rect x="344" y="62.55470180533442" width="6" rx="3" height="134.89059638933117" fill="#a855f7" opacity="0.99"/><rect x="353" y="66.68669883531783" width="6" rx="3" height="126.62660232936433" fill="#a855f7" opacity="1.00"/><rect x="362" y="93.79526822193152" width="6" rx="3" height="72.40946355613696" fill="#a855f7" opacity="0.95"/><rect x="371" y="113.40359058997952" width="6" rx="3" height="33.19281882004096" fill="#a855f7" opacity="0.86"/><circle cx="200" cy="90" r="35" fill="#a855f7" opacity="0.12"/><text x="200" y="100" text-anchor="middle" font-size="30">🎙️</text>
<rect x="16" y="224" width="144" height="22" rx="11" fill="white" fill-opacity="0.08"/>
<text x="26" y="239" font-family="system-ui,sans-serif" font-size="11" font-weight="600" fill="white" fill-opacity="0.55">Voice Synthesis</text>
</svg>