<svg xmlns="http://www.w3.org/2000/svg" width="400" height="260" viewBox="0 0 400 260">
<defs>
  <linearGradient id="bg" x1="0" y1="0" x2="1" y2="1">
    <stop offset="0%" stop-color="#0a1628"/>
    <stop offset="100%" stop-color="#102030"/>
  </linearGradient>
</defs>
<rect width="400" height="260" fill="url(#bg)"/>
<circle cx="200" cy="130" r="130" fill="#38bdf8" opacity="0.05"/>
<rect x="15" y="70" width="370" height="32" rx="4" fill="white" fill-opacity="0.03"/><rect x="30" y="76" width="180" height="20" rx="4" fill="#38bdf8" opacity="0.50"/><rect x="15" y="115" width="370" height="32" rx="4" fill="white" fill-opacity="0.03"/><rect x="80" y="121" width="120" height="20" rx="4" fill="#38bdf8" opacity="0.62"/><rect x="15" y="160" width="370" height="32" rx="4" fill="white" fill-opacity="0.03"/><rect x="40" y="166" width="200" height="20" rx="4" fill="#38bdf8" opacity="0.74"/><rect x="15" y="205" width="370" height="32" rx="4" fill="white" fill-opacity="0.03"/><rect x="120" y="211" width="100" height="20" rx="4" fill="#38bdf8" opacity="0.86"/><line x1="160" y1="55" x2="160" y2="255" stroke="white" stroke-opacity="0.3" stroke-width="1.5"/><polygon points="155,55 165,55 160,65" fill="white" opacity="0.3"/>
<rect x="16" y="224" width="176" height="22" rx="11" fill="white" fill-opacity="0.08"/>
<text x="26" y="239" font-family="system-ui,sans-serif" font-size="11" font-weight="600" fill="white" fill-opacity="0.55">Intelligent Editing</text>
</svg>