<svg xmlns="http://www.w3.org/2000/svg" width="400" height="260" viewBox="0 0 400 260">
<defs>
  <linearGradient id="bg" x1="0" y1="0" x2="1" y2="1">
    <stop offset="0%" stop-color="#1a0a10"/>
    <stop offset="100%" stop-color="#2a0f18"/>
  </linearGradient>
</defs>
<rect width="400" height="260" fill="url(#bg)"/>
<circle cx="200" cy="130" r="130" fill="#f472b6" opacity="0.05"/>
<rect x="35" y="75" width="38" height="38" rx="9" fill="white" fill-opacity="0.05"/><rect x="83" y="75" width="38" height="38" rx="9" fill="white" fill-opacity="0.05"/><rect x="131" y="75" width="38" height="38" rx="9" fill="#f472b6" fill-opacity="0.8"/><text x="150" y="100" text-anchor="middle" font-size="16" fill="white">✓</text><rect x="179" y="75" width="38" height="38" rx="9" fill="white" fill-opacity="0.05"/><rect x="227" y="75" width="38" height="38" rx="9" fill="white" fill-opacity="0.05"/><rect x="275" y="75" width="38" height="38" rx="9" fill="#f472b6" fill-opacity="0.8"/><text x="294" y="100" text-anchor="middle" font-size="16" fill="white">✓</text><rect x="323" y="75" width="38" height="38" rx="9" fill="white" fill-opacity="0.05"/><rect x="35" y="127" width="38" height="38" rx="9" fill="white" fill-opacity="0.05"/><rect x="83" y="127" width="38" height="38" rx="9" fill="#f472b6" fill-opacity="0.8"/><text x="102" y="152" text-anchor="middle" font-size="16" fill="white">✓</text><rect x="131" y="127" width="38" height="38" rx="9" fill="white" fill-opacity="0.05"/><rect x="179" y="127" width="38" height="38" rx="9" fill="white" fill-opacity="0.05"/><rect x="227" y="127" width="38" height="38" rx="9" fill="#f472b6" fill-opacity="0.8"/><text x="246" y="152" text-anchor="middle" font-size="16" fill="white">✓</text><rect x="275" y="127" width="38" height="38" rx="9" fill="white" fill-opacity="0.05"/><rect x="323" y="127" width="38" height="38" rx="9" fill="white" fill-opacity="0.05"/><rect x="35" y="179" width="38" height="38" rx="9" fill="#f472b6" fill-opacity="0.8"/><text x="54" y="204" text-anchor="middle" font-size="16" fill="white">✓</text><rect x="83" y="179" width="38" height="38" rx="9" fill="white" fill-opacity="0.05"/><rect x="131" y="179" width="38" height="38" rx="9" fill="white" fill-opacity="0.05"/><rect x="179" y="179" width="38" height="38" rx="9" fill="#f472b6" fill-opacity="0.8"/><text x="198" y="204" text-anchor="middle" font-size="16" fill="white">✓</text><rect x="227" y="179" width="38" height="38" rx="9" fill="white" fill-opacity="0.05"/><rect x="275" y="179" width="38" height="38" rx="9" fill="white" fill-opacity="0.05"/><rect x="323" y="179" width="38" height="38" rx="9" fill="white" fill-opacity="0.05"/>
<rect x="16" y="224" width="168" height="22" rx="11" fill="white" fill-opacity="0.08"/>
<text x="26" y="239" font-family="system-ui,sans-serif" font-size="11" font-weight="600" fill="white" fill-opacity="0.55">Strategic Planning</text>
</svg>