<svg xmlns="http://www.w3.org/2000/svg" width="400" height="260" viewBox="0 0 400 260">
<defs>
  <linearGradient id="bg" x1="0" y1="0" x2="1" y2="1">
    <stop offset="0%" stop-color="#0f1020"/>
    <stop offset="100%" stop-color="#181830"/>
  </linearGradient>
</defs>
<rect width="400" height="260" fill="url(#bg)"/>
<circle cx="200" cy="130" r="130" fill="#fb923c" opacity="0.05"/>
<line x1="200" y1="145" x2="200" y2="55" stroke="#fb923c" stroke-opacity="0.25" stroke-width="1"/><circle cx="200" cy="55" r="26" fill="white" fill-opacity="0.07"/><text x="200" y="63" text-anchor="middle" font-size="20">📸</text><line x1="200" y1="145" x2="278" y2="100" stroke="#fb923c" stroke-opacity="0.25" stroke-width="1"/><circle cx="278" cy="100" r="26" fill="white" fill-opacity="0.07"/><text x="278" y="108" text-anchor="middle" font-size="20">🎵</text><line x1="200" y1="145" x2="278" y2="190" stroke="#fb923c" stroke-opacity="0.25" stroke-width="1"/><circle cx="278" cy="190" r="26" fill="white" fill-opacity="0.07"/><text x="278" y="198" text-anchor="middle" font-size="20">▶️</text><line x1="200" y1="145" x2="200" y2="235" stroke="#fb923c" stroke-opacity="0.25" stroke-width="1"/><circle cx="200" cy="235" r="26" fill="white" fill-opacity="0.07"/><text x="200" y="243" text-anchor="middle" font-size="20">🐦</text><line x1="200" y1="145" x2="122" y2="190" stroke="#fb923c" stroke-opacity="0.25" stroke-width="1"/><circle cx="122" cy="190" r="26" fill="white" fill-opacity="0.07"/><text x="122" y="198" text-anchor="middle" font-size="20">📌</text><line x1="200" y1="145" x2="122" y2="100" stroke="#fb923c" stroke-opacity="0.25" stroke-width="1"/><circle cx="122" cy="100" r="26" fill="white" fill-opacity="0.07"/><text x="122" y="108" text-anchor="middle" font-size="20">💼</text><circle cx="200" cy="145" r="30" fill="#fb923c" opacity="0.15"/><text x="200" y="154" text-anchor="middle" font-size="22">🚀</text>
<rect x="16" y="224" width="136" height="22" rx="11" fill="white" fill-opacity="0.08"/>
<text x="26" y="239" font-family="system-ui,sans-serif" font-size="11" font-weight="600" fill="white" fill-opacity="0.55">Multi-Platform</text>
</svg>